<svg width="184" height="128" viewBox="0 0 184 128" fill="none" xmlns="http://www.w3.org/2000/svg">
<g id="Group">
<g id="Group_2">
<path id="Vector" d="M33.5567 92.9645C32.1125 92.2093 30.4993 91.8301 28.7202 91.8301C26.9411 91.8301 25.2694 92.2172 23.8079 92.9898C22.6055 93.6266 21.5927 94.4814 20.7648 95.551C20.0016 94.4498 19.0252 93.5776 17.837 92.9393C16.4592 92.2014 14.9313 91.8301 13.2517 91.8301C11.471 91.8301 9.88309 92.2077 8.4895 92.9645C7.70265 93.3911 7.00902 93.9173 6.39912 94.5351V92.3341H0V116.619H6.39912V102.26C6.39912 101.287 6.61717 100.454 7.05326 99.765C7.48935 99.0777 8.06132 98.5484 8.76601 98.1771C9.4707 97.8073 10.2781 97.6225 11.185 97.6225C12.5281 97.6225 13.653 98.0254 14.56 98.8312C15.4669 99.637 15.9204 100.779 15.9204 102.258V116.618H22.3195V102.258C22.3195 101.285 22.5376 100.452 22.9752 99.7634C23.4113 99.0761 23.9912 98.5468 24.7133 98.1755C25.4353 97.8058 26.2332 97.6209 27.107 97.6209C28.4169 97.6209 29.526 98.0238 30.433 98.8296C31.3399 99.6354 31.7934 100.778 31.7934 102.257V116.616H38.2431V101.198C38.2431 99.2167 37.8228 97.5372 36.9838 96.1594C36.1432 94.7832 35.0008 93.7166 33.5567 92.9598V92.9645Z" fill="white"/>
<path id="Vector_2" d="M47.6363 92.334H41.2372V116.619H47.6363V92.334Z" fill="white"/>
<path id="Vector_3" d="M68.7266 94.5395C68.0772 93.8964 67.3314 93.3529 66.4845 92.9137C65.0894 92.1916 63.503 91.8298 61.7223 91.8298C59.4708 91.8298 57.4562 92.3844 55.6755 93.492C53.8948 94.5996 52.4918 96.1037 51.4679 98.0014C50.4425 99.899 49.9305 102.075 49.9305 104.527C49.9305 106.979 50.4425 109.054 51.4679 110.951C52.4918 112.849 53.8948 114.352 55.6755 115.461C57.4562 116.568 59.4708 117.123 61.7223 117.123C63.4682 117.123 65.0562 116.745 66.4845 115.988C67.3599 115.525 68.123 114.96 68.7771 114.295V116.619H75.1257V80.2402H68.7266V94.5379V94.5395ZM66.1069 110.322C65.1668 110.894 64.0576 111.179 62.7809 111.179C61.5722 111.179 60.4883 110.902 59.5308 110.348C58.5733 109.793 57.826 109.005 57.2887 107.979C56.7515 106.955 56.4829 105.788 56.4829 104.478C56.4829 103.168 56.7515 101.967 57.2887 100.977C57.826 99.9859 58.5733 99.1959 59.5308 98.6081C60.4883 98.0203 61.588 97.7264 62.8315 97.7264C64.075 97.7264 65.1652 98.0203 66.1069 98.6081C67.047 99.1959 67.7865 99.9859 68.3237 100.977C68.8609 101.967 69.1295 103.135 69.1295 104.478C69.1295 105.821 68.8609 106.946 68.3237 107.954C67.7865 108.962 67.047 109.752 66.1069 110.322Z" fill="white"/>
<path id="Vector_4" d="M96.4545 93.1672C95.0435 92.2776 93.4477 91.832 91.6686 91.832C89.8895 91.832 88.1751 92.2349 86.731 93.0408C85.9094 93.499 85.1905 94.0614 84.5648 94.7203V92.3361H78.1656V116.621H84.5648V102.665C84.5648 101.691 84.7828 100.818 85.2189 100.045C85.655 99.2724 86.2522 98.6767 87.0075 98.2564C87.7628 97.8377 88.627 97.626 89.6019 97.626C91.0461 97.626 92.239 98.0968 93.1791 99.037C94.1192 99.9771 94.5901 101.187 94.5901 102.665V116.621H100.989V101.254C100.989 99.6421 100.586 98.1127 99.7805 96.6685C98.9747 95.2244 97.8655 94.0567 96.4545 93.1672Z" fill="white"/>
<path id="Vector_5" d="M110.334 92.334H103.934V116.619H110.334V92.334Z" fill="white"/>
<path id="Vector_6" d="M131.432 94.4687C130.808 93.8588 130.079 93.339 129.24 92.914C127.812 92.1919 126.192 91.8301 124.378 91.8301C122.228 91.8301 120.28 92.3594 118.534 93.418C116.786 94.4766 115.418 95.9129 114.427 97.7252C113.437 99.539 112.941 101.588 112.941 103.871C112.941 106.155 113.435 108.213 114.427 110.043C115.418 111.874 116.786 113.326 118.534 114.401C120.28 115.477 122.245 116.012 124.429 116.012C126.21 116.012 127.805 115.652 129.215 114.929C130.038 114.507 130.759 113.988 131.381 113.379V115.508C131.381 117.355 130.784 118.809 129.592 119.866C128.4 120.925 126.745 121.452 124.63 121.452C122.983 121.452 121.572 121.159 120.397 120.571C119.221 119.983 118.163 119.117 117.222 117.976L113.141 122.058C114.317 123.737 115.887 125.038 117.853 125.962C119.818 126.885 122.111 127.348 124.731 127.348C127.35 127.348 129.542 126.851 131.507 125.861C133.473 124.87 135.009 123.484 136.118 121.704C137.226 119.923 137.78 117.841 137.78 115.456V92.3294H131.432V94.464V94.4687ZM128.888 109.34C127.963 109.861 126.88 110.121 125.638 110.121C124.396 110.121 123.362 109.852 122.438 109.315C121.514 108.777 120.792 108.038 120.272 107.098C119.75 106.158 119.491 105.099 119.491 103.924C119.491 102.682 119.75 101.598 120.272 100.674C120.792 99.7508 121.514 99.0192 122.438 98.482C123.362 97.9448 124.445 97.6762 125.688 97.6762C126.932 97.6762 127.963 97.9448 128.888 98.482C129.812 99.0192 130.525 99.7508 131.029 100.674C131.533 101.598 131.784 102.682 131.784 103.924C131.784 105.166 131.533 106.208 131.029 107.148C130.525 108.089 129.811 108.82 128.888 109.34Z" fill="white"/>
<path id="Vector_7" d="M158.825 93.0152C157.396 92.2267 155.759 91.8317 153.912 91.8317C152.065 91.8317 150.427 92.2346 149 93.0404C148.209 93.4876 147.515 94.0327 146.91 94.6695V80.2422H140.511V116.621H146.91V102.664C146.91 101.691 147.128 100.817 147.564 100.045C148 99.2721 148.597 98.6764 149.352 98.2561C150.108 97.8374 150.972 97.6257 151.947 97.6257C153.391 97.6257 154.584 98.0965 155.524 99.0366C156.464 99.9768 156.935 101.187 156.935 102.664V116.621H163.334V101.253C163.334 99.4064 162.939 97.7695 162.151 96.3411C161.361 94.9144 160.253 93.8052 158.825 93.0152Z" fill="white"/>
<path id="Vector_8" d="M183.084 92.3334H177.392V82.207H170.992V92.3334H165.249V97.9268H170.992V116.62H177.392V97.9268H183.084V92.3334Z" fill="white"/>
<path id="Vector_9" d="M44.4116 88.2516C46.4151 88.2516 48.0393 86.6274 48.0393 84.6238C48.0393 82.6203 46.4151 80.9961 44.4116 80.9961C42.408 80.9961 40.7838 82.6203 40.7838 84.6238C40.7838 86.6274 42.408 88.2516 44.4116 88.2516Z" fill="white"/>
<path id="Vector_10" d="M107.134 88.2516C109.138 88.2516 110.762 86.6274 110.762 84.6238C110.762 82.6203 109.138 80.9961 107.134 80.9961C105.13 80.9961 103.506 82.6203 103.506 84.6238C103.506 86.6274 105.13 88.2516 107.134 88.2516Z" fill="white"/>
</g>
<g id="Group_3">
<path id="Vector_11" d="M89.5782 0C70.7537 0 55.4922 15.2599 55.4922 34.086C55.4922 52.9121 70.7521 68.172 89.5782 68.172C108.404 68.172 123.664 52.9105 123.664 34.086C123.664 15.2615 108.403 0 89.5782 0ZM89.5782 61.8866C74.2487 61.8866 61.7775 49.4155 61.7775 34.086C61.7775 18.7565 74.2487 6.28536 89.5782 6.28536C104.908 6.28536 117.379 18.7565 117.379 34.086C117.379 49.4155 104.908 61.8866 89.5782 61.8866Z" fill="white"/>
<path id="Vector_12" d="M92.7778 30.8867H86.3787V37.2858H92.7778V30.8867Z" fill="white"/>
<path id="Vector_13" d="M92.7778 20.7832H86.3787V27.1823H92.7778V20.7832Z" fill="white"/>
<path id="Vector_14" d="M92.7778 10.6836H86.3787V17.0827H92.7778V10.6836Z" fill="white"/>
</g>
</g>
</svg>
